<svg width="1440" height="778" viewBox="0 0 1440 778" fill="none" xmlns="http://www.w3.org/2000/svg">
<mask id="mask0_652_14138" style="mask-type:alpha" maskUnits="userSpaceOnUse" x="0" y="0" width="1440" height="778">
<rect width="1440" height="778" fill="#010510"/>
<rect x="0.5" y="0.5" width="1439" height="777" stroke="#010510" stroke-opacity="0.06"/>
</mask>
<g mask="url(#mask0_652_14138)">
<mask id="path-3-inside-1_652_14138" fill="white">
<path d="M0 233H1440V1011H0V233Z"/>
</mask>
<path d="M0 233H1440V1011H0V233Z" fill="#010510" fill-opacity="0.02"/>
<path d="M1440 1010H0V1012H1440V1010Z" fill="#010510" fill-opacity="0.06" mask="url(#path-3-inside-1_652_14138)"/>
<rect x="0.5" y="-42.5" width="1439" height="863" stroke="#010510" stroke-opacity="0.06"/>
<rect y="-43" width="144" height="144" rx="12" stroke="#010510" stroke-opacity="0.04"/>
<rect x="144" y="-43" width="144" height="144" rx="12" fill="#010510" fill-opacity="0.02" stroke="#010510" stroke-opacity="0.04"/>
<rect x="288" y="-43" width="144" height="144" rx="12" stroke="#010510" stroke-opacity="0.04"/>
<rect x="432" y="-43" width="144" height="144" rx="12" stroke="#010510" stroke-opacity="0.04"/>
<rect x="576" y="-43" width="144" height="144" rx="12" stroke="#010510" stroke-opacity="0.04"/>
<rect x="720" y="-43" width="144" height="144" rx="12" stroke="#010510" stroke-opacity="0.04"/>
<rect x="864" y="-43" width="144" height="144" rx="12" stroke="#010510" stroke-opacity="0.04"/>
<rect x="1008" y="-43" width="144" height="144" rx="12" stroke="#010510" stroke-opacity="0.04"/>
<rect x="1152" y="-43" width="144" height="144" rx="12" fill="#010510" fill-opacity="0.02" stroke="#010510" stroke-opacity="0.04"/>
<rect x="1296" y="-43" width="144" height="144" rx="12" stroke="#010510" stroke-opacity="0.04"/>
<rect y="101" width="144" height="144" rx="12" fill="#010510" fill-opacity="0.02" stroke="#010510" stroke-opacity="0.04"/>
<rect x="144" y="101" width="144" height="144" rx="12" stroke="#010510" stroke-opacity="0.04"/>
<rect x="288" y="101" width="144" height="144" rx="12" stroke="#010510" stroke-opacity="0.04"/>
<rect x="432" y="101" width="144" height="144" rx="12" stroke="#010510" stroke-opacity="0.04"/>
<rect x="576" y="101" width="144" height="144" rx="12" stroke="#010510" stroke-opacity="0.04"/>
<rect x="720" y="101" width="144" height="144" rx="12" stroke="#010510" stroke-opacity="0.04"/>
<rect x="864" y="101" width="144" height="144" rx="12" stroke="#010510" stroke-opacity="0.04"/>
<rect x="1008" y="101" width="144" height="144" rx="12" stroke="#010510" stroke-opacity="0.04"/>
<rect x="1152" y="101" width="144" height="144" rx="12" stroke="#010510" stroke-opacity="0.04"/>
<rect x="1296" y="101" width="144" height="144" rx="12" fill="#010510" fill-opacity="0.02" stroke="#010510" stroke-opacity="0.04"/>
<rect y="245" width="144" height="144" rx="12" stroke="#010510" stroke-opacity="0.04"/>
<rect x="144" y="245" width="144" height="144" rx="12" fill="#010510" fill-opacity="0.02" stroke="#010510" stroke-opacity="0.04"/>
<rect x="288" y="245" width="144" height="144" rx="12" stroke="#010510" stroke-opacity="0.04"/>
<rect x="432" y="245" width="144" height="144" rx="12" stroke="#010510" stroke-opacity="0.04"/>
<rect x="576" y="245" width="144" height="144" rx="12" stroke="#010510" stroke-opacity="0.04"/>
<rect x="720" y="245" width="144" height="144" rx="12" stroke="#010510" stroke-opacity="0.04"/>
<rect x="864" y="245" width="144" height="144" rx="12" stroke="#010510" stroke-opacity="0.04"/>
<rect x="1008" y="245" width="144" height="144" rx="12" stroke="#010510" stroke-opacity="0.04"/>
<rect x="1152" y="245" width="144" height="144" rx="12" fill="#010510" fill-opacity="0.02" stroke="#010510" stroke-opacity="0.04"/>
<rect x="1296" y="245" width="144" height="144" rx="12" stroke="#010510" stroke-opacity="0.04"/>
<rect y="389" width="144" height="144" rx="12" fill="#010510" fill-opacity="0.02" stroke="#010510" stroke-opacity="0.04"/>
<rect x="144" y="389" width="144" height="144" rx="12" stroke="#010510" stroke-opacity="0.04"/>
<rect x="288" y="389" width="144" height="144" rx="12" stroke="#010510" stroke-opacity="0.04"/>
<rect x="432" y="389" width="144" height="144" rx="12" stroke="#010510" stroke-opacity="0.04"/>
<rect x="576" y="389" width="144" height="144" rx="12" stroke="#010510" stroke-opacity="0.04"/>
<rect x="720" y="389" width="144" height="144" rx="12" stroke="#010510" stroke-opacity="0.04"/>
<rect x="864" y="389" width="144" height="144" rx="12" stroke="#010510" stroke-opacity="0.04"/>
<rect x="1008" y="389" width="144" height="144" rx="12" stroke="#010510" stroke-opacity="0.04"/>
<rect x="1152" y="389" width="144" height="144" rx="12" stroke="#010510" stroke-opacity="0.04"/>
<rect x="1296" y="389" width="144" height="144" rx="12" fill="#010510" fill-opacity="0.02" stroke="#010510" stroke-opacity="0.04"/>
<rect y="533" width="144" height="144" rx="12" stroke="#010510" stroke-opacity="0.04"/>
<rect x="144" y="533" width="144" height="144" rx="12" fill="#010510" fill-opacity="0.02" stroke="#010510" stroke-opacity="0.04"/>
<rect x="288" y="533" width="144" height="144" rx="12" stroke="#010510" stroke-opacity="0.04"/>
<rect x="432" y="533" width="144" height="144" rx="12" stroke="#010510" stroke-opacity="0.04"/>
<rect x="576" y="533" width="144" height="144" rx="12" stroke="#010510" stroke-opacity="0.04"/>
<rect x="720" y="533" width="144" height="144" rx="12" stroke="#010510" stroke-opacity="0.04"/>
<rect x="864" y="533" width="144" height="144" rx="12" stroke="#010510" stroke-opacity="0.04"/>
<rect x="1008" y="533" width="144" height="144" rx="12" stroke="#010510" stroke-opacity="0.04"/>
<rect x="1152" y="533" width="144" height="144" rx="12" fill="#010510" fill-opacity="0.02" stroke="#010510" stroke-opacity="0.04"/>
<rect x="1296" y="533" width="144" height="144" rx="12" stroke="#010510" stroke-opacity="0.04"/>
<rect y="677" width="144" height="144" rx="12" fill="#010510" fill-opacity="0.02" stroke="#010510" stroke-opacity="0.04"/>
<rect x="144" y="677" width="144" height="144" rx="12" stroke="#010510" stroke-opacity="0.04"/>
<rect x="288" y="677" width="144" height="144" rx="12" stroke="#010510" stroke-opacity="0.04"/>
<rect x="432" y="677" width="144" height="144" rx="12" stroke="#010510" stroke-opacity="0.04"/>
<rect x="576" y="677" width="144" height="144" rx="12" stroke="#010510" stroke-opacity="0.04"/>
<rect x="720" y="677" width="144" height="144" rx="12" stroke="#010510" stroke-opacity="0.04"/>
<rect x="864" y="677" width="144" height="144" rx="12" stroke="#010510" stroke-opacity="0.04"/>
<rect x="1008" y="677" width="144" height="144" rx="12" stroke="#010510" stroke-opacity="0.04"/>
<rect x="1152" y="677" width="144" height="144" rx="12" stroke="#010510" stroke-opacity="0.04"/>
<rect x="1296" y="677" width="144" height="144" rx="12" fill="#010510" fill-opacity="0.02" stroke="#010510" stroke-opacity="0.04"/>
<g filter="url(#filter0_f_652_14138)">
<rect x="550" y="219" width="340" height="340" rx="170" fill="#010510" fill-opacity="0.12"/>
<rect x="550.5" y="219.5" width="339" height="339" rx="169.5" stroke="#010510" stroke-opacity="0.06"/>
</g>
</g>
<defs>
<filter id="filter0_f_652_14138" x="210" y="-121" width="1020" height="1020" filterUnits="userSpaceOnUse" color-interpolation-filters="sRGB">
<feFlood flood-opacity="0" result="BackgroundImageFix"/>
<feBlend mode="normal" in="SourceGraphic" in2="BackgroundImageFix" result="shape"/>
<feGaussianBlur stdDeviation="170" result="effect1_foregroundBlur_652_14138"/>
</filter>
</defs>
</svg>
